<svg width="32" height="28" fill="none" xmlns="http://www.w3.org/2000/svg"><path fill-rule="evenodd" clip-rule="evenodd" d="M13.877 2.38v7.112a4.25 4.25 0 0 1-1.245 3.005l-3.368 3.368a13.947 13.947 0 0 1 7.213 1.435 11.78 11.78 0 0 0 8.093.9l.404-.1-5.602-5.603a4.25 4.25 0 0 1-1.245-3.005V2.38a33.452 33.452 0 0 0-4.25 0Zm6.375.196a1.063 1.063 0 0 0 .131-2.117 35.2 35.2 0 0 0-4.381-.272A35.488 35.488 0 0 0 11.62.46a1.062 1.062 0 0 0 .132 2.117v6.916c0 .564-.224 1.104-.623 1.503L2.214 19.91c-2.297 2.297-1.28 6.34 2.084 6.915 3.805.65 7.715.988 11.704.988 3.988 0 7.899-.339 11.704-.988 3.363-.575 4.38-4.618 2.084-6.915l-8.916-8.915a2.125 2.125 0 0 1-.622-1.503V2.576Z" fill="#262626"/></svg>