<svg width="24" height="32" fill="none" xmlns="http://www.w3.org/2000/svg"><path d="M12 .063C5.545.063.312 5.295.312 11.75c0 4.322 2.347 8.095 5.83 10.116.971.563 1.58 1.428 1.607 2.298.015.48.35.89.818 1 .497.118 1.005.21 1.52.276a.763.763 0 0 0 .85-.77v-6.603a9.509 9.509 0 0 1-1.327-.243 1.062 1.062 0 1 1 .53-2.058A7.453 7.453 0 0 0 12 16c.644 0 1.267-.081 1.86-.234a1.062 1.062 0 1 1 .53 2.058 9.51 9.51 0 0 1-1.327.243v6.603c0 .462.392.83.85.77a14.794 14.794 0 0 0 1.52-.276c.468-.11.803-.52.818-1 .027-.87.636-1.735 1.607-2.298a11.683 11.683 0 0 0 5.83-10.116C23.688 5.295 18.454.062 12 .062Z" fill="#262626"/><path fill-rule="evenodd" clip-rule="evenodd" d="M7.769 27.191c.109-.576.665-.955 1.242-.846.967.184 1.966.28 2.989.28s2.022-.096 2.99-.28a1.063 1.063 0 0 1 .396 2.088A18.15 18.15 0 0 1 12 28.75c-1.156 0-2.288-.109-3.386-.317a1.063 1.063 0 0 1-.845-1.242ZM8.818 30.654a1.062 1.062 0 0 1 1.168-.946 19.362 19.362 0 0 0 4.028 0 1.062 1.062 0 1 1 .222 2.113 21.478 21.478 0 0 1-4.472 0 1.062 1.062 0 0 1-.946-1.167Z" fill="#262626"/></svg>