<svg width="28" height="28" fill="none" xmlns="http://www.w3.org/2000/svg"><path fill-rule="evenodd" clip-rule="evenodd" d="M.188 16.125C.188 9.67 5.42 4.437 11.874 4.437c.587 0 1.063.476 1.063 1.063v9.563H22.5c.587 0 1.063.475 1.063 1.062 0 6.455-5.233 11.688-11.688 11.688C5.42 27.813.187 22.58.187 16.124Z" fill="#262626"/><path fill-rule="evenodd" clip-rule="evenodd" d="M15.063 1.25c0-.587.475-1.063 1.062-1.063 6.455 0 11.688 5.233 11.688 11.688 0 .587-.476 1.063-1.063 1.063H16.125a1.063 1.063 0 0 1-1.063-1.063V1.25Z" fill="#262626"/></svg>