<svg width="32" height="24" fill="none" xmlns="http://www.w3.org/2000/svg"><path d="m5.482 19.512.37 1.398c.467 1.82 1.489 2.752 3.52 2.752h13.256c2.044 0 3.053-.91 3.533-2.752l.369-1.398H5.482Zm-.406-1.598h21.872l2.314-8.977-1.009-.548-5.674 3.917c-.419.28-.702.175-.936-.14l-5.341-7.648-.591-.023L10.32 12.2c-.21.303-.456.397-.874.117L3.882 8.47l-1.181.292 2.375 9.152Zm-1.92-6.646c1.625 0 2.93-1.247 2.93-2.798 0-1.515-1.305-2.774-2.93-2.774C1.531 5.696.214 6.943.214 8.47c0 1.551 1.33 2.798 2.942 2.798Zm12.85-4.85c1.613 0 2.93-1.247 2.93-2.786 0-1.516-1.317-2.775-2.93-2.775-1.637 0-2.941 1.248-2.941 2.775 0 1.539 1.317 2.786 2.941 2.786Zm12.838 4.85c1.612 0 2.942-1.247 2.942-2.798 0-1.527-1.317-2.774-2.942-2.774-1.612 0-2.93 1.259-2.93 2.774 0 1.551 1.318 2.798 2.93 2.798Z" fill="#262626"/></svg>