<svg width="29" height="28" fill="none" xmlns="http://www.w3.org/2000/svg"><path fill-rule="evenodd" clip-rule="evenodd" d="M1.25.188c.587 0 1.063.475 1.063 1.062v.764l2.604-.65c3.198-.8 6.578-.43 9.527 1.045l.152.076a11.687 11.687 0 0 0 7.904.923l4.405-1.036a1.062 1.062 0 0 1 1.3 1.149 67.692 67.692 0 0 0-.392 7.292c0 2.484.135 4.937.399 7.351a1.062 1.062 0 0 1-.813 1.15l-4.412 1.038c-3.146.74-6.45.354-9.341-1.091l-.153-.076a11.687 11.687 0 0 0-8.061-.885l-3.12.78v7.67a1.063 1.063 0 0 1-2.124 0V1.25C.188.663.662.187 1.25.187Z" fill="#262626"/></svg>