<svg width="32" height="28" fill="none" xmlns="http://www.w3.org/2000/svg"><path d="M15.575.974c.27-.118.58-.118.85 0a85.925 85.925 0 0 1 14.917 8.379 1.063 1.063 0 0 1-.327 1.894 70.754 70.754 0 0 0-14.027 5.542l-.005.002-.482.255a1.063 1.063 0 0 1-1.001 0 70.837 70.837 0 0 0-5.875-2.8v-.317c0-.186.096-.351.243-.44a77.398 77.398 0 0 1 6.592-3.57 1.062 1.062 0 1 0-.92-1.915 79.5 79.5 0 0 0-6.773 3.667 2.631 2.631 0 0 0-1.216 1.74 70.601 70.601 0 0 0-6.565-2.164 1.062 1.062 0 0 1-.328-1.894A85.927 85.927 0 0 1 15.575.974Z" fill="#262626"/><path d="M17.503 18.92a68.633 68.633 0 0 1 10.859-4.65c.19 2.004.311 4.029.362 6.07.01.438-.249.838-.653 1.007a67.828 67.828 0 0 0-11.482 6.15 1.062 1.062 0 0 1-1.178 0 67.824 67.824 0 0 0-11.482-6.15 1.063 1.063 0 0 1-.652-1.007c.05-2.042.171-4.066.362-6.07 1.304.43 2.592.898 3.861 1.402v1.8a2.124 2.124 0 0 0-.198 3.551 7.399 7.399 0 0 1-.563 1.573c.641.302 1.277.615 1.907.937a9.53 9.53 0 0 0 .78-2.279 2.125 2.125 0 0 0 .199-3.782v-.914a68.768 68.768 0 0 1 4.874 2.363 3.188 3.188 0 0 0 3.004 0Z" fill="#262626"/><path d="M5.321 24.572a7.432 7.432 0 0 0 1.418-1.976c.641.302 1.277.615 1.907.937a9.552 9.552 0 0 1-1.822 2.541 1.063 1.063 0 0 1-1.503-1.502Z" fill="#262626"/></svg>