<svg width="25" height="31" fill="none" xmlns="http://www.w3.org/2000/svg"><path fill-rule="evenodd" clip-rule="evenodd" d="M24.265.34c.266.2.422.514.422.848v5.289a.96.96 0 0 1 0 .048v14.57a4.25 4.25 0 0 1-3.082 4.087l-1.87.534a3.617 3.617 0 1 1-1.987-6.954l3.273-.936a2.125 2.125 0 0 0 1.541-2.043V7.91l-12.75 3.643v13.794a4.25 4.25 0 0 1-3.082 4.086l-1.87.534a3.617 3.617 0 1 1-1.987-6.954l3.273-.936a2.125 2.125 0 0 0 1.542-2.043V5.438c0-.475.314-.892.77-1.022L23.333.166c.32-.092.666-.028.932.173Z" fill="#262626"/></svg>