<svg width="27" height="28" fill="none" xmlns="http://www.w3.org/2000/svg"><path d="M22.364.188a2.656 2.656 0 0 0-2.656 2.656v22.312a2.656 2.656 0 0 0 2.656 2.657h1.063a2.656 2.656 0 0 0 2.656-2.657V2.844A2.656 2.656 0 0 0 23.427.188h-1.063ZM10.146 9.219a2.656 2.656 0 0 1 2.656-2.656h1.062a2.656 2.656 0 0 1 2.656 2.656v15.937a2.656 2.656 0 0 1-2.656 2.657h-1.062a2.656 2.656 0 0 1-2.656-2.657V9.22ZM.583 15.594a2.656 2.656 0 0 1 2.656-2.656h1.063a2.656 2.656 0 0 1 2.656 2.656v9.562a2.656 2.656 0 0 1-2.656 2.657H3.239a2.656 2.656 0 0 1-2.656-2.657v-9.562Z" fill="#262626"/></svg>