<svg width="28" height="26" fill="none" xmlns="http://www.w3.org/2000/svg"><path d="M12.938 2.422A13.752 13.752 0 0 0 5.5.25c-1.612 0-3.163.277-4.604.786-.425.15-.709.552-.709 1.002v20.188a1.062 1.062 0 0 0 1.417 1.001 11.667 11.667 0 0 1 3.896-.665c2.826 0 5.416 1.002 7.438 2.672V2.422ZM15.063 25.234a11.635 11.635 0 0 1 7.437-2.672c1.368 0 2.679.235 3.896.665a1.063 1.063 0 0 0 1.416-1.002V2.038c0-.45-.283-.852-.708-1.002A13.792 13.792 0 0 0 22.5.25c-2.738 0-5.29.797-7.438 2.172v22.812Z" fill="#262626"/></svg>