<svg width="32" height="30" fill="none" xmlns="http://www.w3.org/2000/svg"><path fill-rule="evenodd" clip-rule="evenodd" d="M29.182.125c-.532 0-1.051.157-1.494.452l-7.195 4.797a26.561 26.561 0 0 0-5.21 4.556 13.804 13.804 0 0 1 6.787 6.787 26.562 26.562 0 0 0 4.557-5.209l4.796-7.195a2.694 2.694 0 0 0-2.24-4.188ZM17.425 19.994a26.565 26.565 0 0 0 3.033-1.966 11.79 11.79 0 0 0-6.485-6.485 26.565 26.565 0 0 0-1.966 3.033l-.394.71a7.453 7.453 0 0 1 5.102 5.102l.71-.394Zm-7.862-2.869a5.312 5.312 0 0 0-5.312 5.313 2.125 2.125 0 0 1-2.269 2.12 1.063 1.063 0 0 0-.99 1.59 7.438 7.438 0 0 0 13.884-3.711 5.313 5.313 0 0 0-5.313-5.312Z" fill="#262626"/></svg>