<svg width="29" height="29" fill="none" xmlns="http://www.w3.org/2000/svg"><path d="M13.938 5.56c0-.502-.264-.957-.569-1.358a2.334 2.334 0 0 1-.494-1.42c0-1.468 1.427-2.657 3.188-2.657 1.76 0 3.187 1.19 3.187 2.656 0 .523-.181 1.01-.494 1.421-.305.4-.569.856-.569 1.359 0 .47.394.846.864.818a67.053 67.053 0 0 0 7.98-.957 1.062 1.062 0 0 1 1.244.913c.317 2.535.497 5.113.532 7.725a.93.93 0 0 1-.934.94c-.503 0-.958-.264-1.358-.568a2.333 2.333 0 0 0-1.421-.495c-1.467 0-2.657 1.428-2.657 3.188 0 1.76 1.19 3.188 2.657 3.188.522 0 1.01-.182 1.42-.495.401-.304.856-.568 1.36-.568.439 0 .788.37.756.81a69.158 69.158 0 0 1-.843 6.863 1.062 1.062 0 0 1-.864.864 69.206 69.206 0 0 1-7.87.909.821.821 0 0 1-.866-.823c0-.503.264-.958.569-1.358.313-.411.494-.899.494-1.421 0-1.467-1.427-2.657-3.188-2.657-1.76 0-3.187 1.19-3.187 2.657 0 .522.181 1.01.494 1.42.305.401.569.856.569 1.36 0 .511-.42.925-.932.91a69.57 69.57 0 0 1-6.67-.51 1.063 1.063 0 0 1-.914-1.244 66.99 66.99 0 0 0 .89-6.975.751.751 0 0 0-.751-.805c-.503 0-.958.264-1.359.568a2.334 2.334 0 0 1-1.42.494c-1.468 0-2.657-1.427-2.657-3.187 0-1.76 1.19-3.188 2.656-3.188.523 0 1.01.182 1.421.495.4.304.856.568 1.359.568a.93.93 0 0 0 .933-.94 67.575 67.575 0 0 0-.44-6.829 1.063 1.063 0 0 1 1.178-1.177c1.902.22 3.828.36 5.775.417a.907.907 0 0 0 .93-.91Z" fill="#262626"/></svg>