<svg width="28" height="28" fill="none" xmlns="http://www.w3.org/2000/svg"><path fill-rule="evenodd" clip-rule="evenodd" d="m24.553 8.968-4.337 3.614a6.402 6.402 0 0 1 0 2.836l4.337 3.614a11.723 11.723 0 0 0 0-10.064Zm-5.521 15.585-3.614-4.337a6.402 6.402 0 0 1-2.836 0l-3.614 4.337a11.723 11.723 0 0 0 10.064 0ZM3.447 19.032l4.337-3.614a6.403 6.403 0 0 1 0-2.836L3.447 8.968a11.723 11.723 0 0 0 0 10.064ZM8.968 3.447l3.614 4.337a6.403 6.403 0 0 1 2.836 0l3.614-4.337a11.723 11.723 0 0 0-10.064 0ZM21.233 2.23a13.849 13.849 0 0 1 2.534 2.004c.78.78 1.448 1.632 2.004 2.534a13.832 13.832 0 0 1 0 14.466 13.847 13.847 0 0 1-2.004 2.534c-.78.78-1.632 1.448-2.534 2.004a13.832 13.832 0 0 1-14.466 0 13.846 13.846 0 0 1-2.534-2.004 13.849 13.849 0 0 1-2.004-2.534 13.832 13.832 0 0 1 0-14.466 13.847 13.847 0 0 1 2.004-2.534c.78-.78 1.632-1.448 2.534-2.004a13.832 13.832 0 0 1 14.466 0Zm-4.228 8.766a4.23 4.23 0 0 0-1.572-.997 4.272 4.272 0 0 0-2.866 0 4.23 4.23 0 0 0-1.572.997 4.23 4.23 0 0 0-.997 1.572 4.272 4.272 0 0 0 0 2.866 4.23 4.23 0 0 0 .997 1.572c.461.461 1 .793 1.572.998.924.33 1.942.33 2.866 0a4.23 4.23 0 0 0 1.572-.998c.461-.461.793-1 .998-1.572.33-.924.33-1.942 0-2.866a4.23 4.23 0 0 0-.998-1.572Z" fill="#262626"/></svg>