<svg width="28" height="28" fill="none" xmlns="http://www.w3.org/2000/svg"><path d="M14 .188c.587 0 1.063.475 1.063 1.062v3.188a1.063 1.063 0 0 1-2.126 0V1.25c0-.587.476-1.063 1.063-1.063ZM7.625 14a6.375 6.375 0 1 1 12.75 0 6.375 6.375 0 0 1-12.75 0ZM23.767 5.736a1.063 1.063 0 0 0-1.503-1.503l-2.253 2.254a1.062 1.062 0 1 0 1.502 1.503l2.254-2.254ZM27.813 14c0 .587-.476 1.063-1.063 1.063h-3.188a1.063 1.063 0 0 1 0-2.126h3.188c.587 0 1.063.476 1.063 1.063ZM22.264 23.767a1.063 1.063 0 0 0 1.503-1.503l-2.254-2.254a1.062 1.062 0 1 0-1.503 1.503l2.254 2.254ZM14 22.5c.587 0 1.063.476 1.063 1.063v3.187a1.063 1.063 0 0 1-2.126 0v-3.188c0-.586.476-1.062 1.063-1.062ZM7.99 21.513a1.063 1.063 0 1 0-1.503-1.503l-2.254 2.254a1.063 1.063 0 0 0 1.503 1.503l2.254-2.254ZM5.5 14c0 .587-.476 1.063-1.063 1.063H1.25a1.063 1.063 0 0 1 0-2.126h3.188c.586 0 1.062.476 1.062 1.063ZM6.487 7.99A1.063 1.063 0 0 0 7.99 6.487L5.736 4.233a1.063 1.063 0 0 0-1.503 1.503L6.487 7.99Z" fill="#262626"/></svg>