<svg width="30" height="28" fill="none" xmlns="http://www.w3.org/2000/svg"><path d="M4.375 6.031a5.844 5.844 0 1 1 11.688 0 5.844 5.844 0 0 1-11.688 0ZM18.188 9.219a4.781 4.781 0 1 1 9.562 0 4.781 4.781 0 0 1-9.563 0ZM.125 24.094C.125 18.519 4.645 14 10.219 14s10.094 4.52 10.094 10.094v.003l-.002.17c-.006.366-.2.703-.514.892a18.512 18.512 0 0 1-9.578 2.654c-3.502 0-6.78-.97-9.578-2.654a1.063 1.063 0 0 1-.515-.892 10.266 10.266 0 0 1-.001-.173ZM22.437 24.098c0 .068 0 .137-.002.204-.008.48-.123.943-.33 1.36a14.29 14.29 0 0 0 7.17-1.432c.35-.171.578-.52.594-.91a6.906 6.906 0 0 0-9.856-6.532 12.165 12.165 0 0 1 2.424 7.306v.004Z" fill="#262626"/></svg>