<svg width="180" height="34" fill="none" xmlns="http://www.w3.org/2000/svg"><path d="M8.667 17 17 8.667 25.333 17 17 25.333 8.667 17ZM33.667 7v10L17 .333h10L33.667 7ZM33.667 27V17L17 33.667h10L33.667 27ZM.333 27V17L17 33.667H7L.333 27ZM.333 7v10L17 .333H7L.333 7Z" fill="#1A1A1A"/><path d="M43.647 24.5V9.333h2.491V24.5h-2.491Zm1.711 0v-2.275h7.93V24.5h-7.93ZM55.256 24.5V14.1h2.383v10.4h-2.383Zm1.191-12.307c-.404 0-.744-.137-1.018-.411a1.424 1.424 0 0 1-.39-1.019c0-.404.13-.744.39-1.018a1.383 1.383 0 0 1 1.018-.412c.42 0 .759.137 1.019.412.26.274.39.614.39 1.018 0 .405-.13.744-.39 1.019-.26.274-.6.411-1.019.411ZM61.894 24.5V9.767h2.383V24.5h-2.383Zm-2.492-8.233V14.1h13.65v2.167h-13.65Zm8.775 8.233V9.767h2.383V24.5h-2.383ZM74.785 24.5V8.9h2.383v15.6h-2.383ZM84.652 24.717c-1.04 0-1.979-.232-2.816-.694a5.428 5.428 0 0 1-1.972-1.95c-.477-.823-.715-1.747-.715-2.773s.238-1.943.715-2.752a5.313 5.313 0 0 1 1.928-1.95 5.35 5.35 0 0 1 2.73-.715c.968 0 1.82.224 2.557.672a4.681 4.681 0 0 1 1.755 1.842c.433.78.65 1.668.65 2.665 0 .173-.014.354-.043.541a5.222 5.222 0 0 1-.087.585h-8.537v-1.95h7.302l-.888.78c-.03-.635-.152-1.17-.369-1.603a2.305 2.305 0 0 0-.931-.997c-.39-.23-.874-.346-1.452-.346-.607 0-1.134.13-1.582.39a2.65 2.65 0 0 0-1.04 1.105c-.245.462-.368 1.018-.368 1.668 0 .65.13 1.22.39 1.712.26.49.628.873 1.105 1.148.477.26 1.026.39 1.647.39.534 0 1.025-.094 1.473-.282a3.075 3.075 0 0 0 1.17-.823l1.517 1.538a4.864 4.864 0 0 1-1.842 1.344 5.872 5.872 0 0 1-2.297.455ZM96.057 24.5V9.333h2.492V24.5h-2.492Zm1.712 0v-2.275h7.93V24.5h-7.93ZM112.116 24.717c-1.04 0-1.978-.232-2.816-.694a5.423 5.423 0 0 1-1.972-1.95c-.477-.823-.715-1.747-.715-2.773s.238-1.943.715-2.752a5.317 5.317 0 0 1 1.929-1.95 5.348 5.348 0 0 1 2.729-.715c.968 0 1.82.224 2.557.672a4.683 4.683 0 0 1 1.755 1.842c.433.78.65 1.668.65 2.665 0 .173-.014.354-.043.541a5.448 5.448 0 0 1-.087.585h-8.537v-1.95h7.302l-.888.78c-.029-.635-.152-1.17-.369-1.603a2.303 2.303 0 0 0-.931-.997c-.39-.23-.874-.346-1.452-.346-.607 0-1.134.13-1.582.39-.447.26-.794.628-1.04 1.105-.245.462-.368 1.018-.368 1.668 0 .65.13 1.22.39 1.712.26.49.628.873 1.105 1.148.477.26 1.026.39 1.647.39.534 0 1.025-.094 1.473-.282a3.078 3.078 0 0 0 1.17-.823l1.517 1.538a4.871 4.871 0 0 1-1.842 1.344 5.872 5.872 0 0 1-2.297.455ZM123.214 24.717a4.742 4.742 0 0 1-2.557-.715 5.246 5.246 0 0 1-1.798-1.929c-.434-.823-.65-1.74-.65-2.751 0-1.026.216-1.943.65-2.752a5.2 5.2 0 0 1 1.798-1.95 4.638 4.638 0 0 1 2.557-.737c.794 0 1.495.174 2.101.52a3.777 3.777 0 0 1 1.474 1.387c.361.592.541 1.264.541 2.015v2.99c0 .751-.18 1.423-.541 2.015a3.784 3.784 0 0 1-1.452 1.408c-.621.332-1.329.499-2.123.499Zm.39-2.254c.881 0 1.589-.296 2.123-.888.549-.592.823-1.35.823-2.275 0-.621-.122-1.17-.368-1.647a2.646 2.646 0 0 0-1.04-1.105c-.433-.274-.946-.411-1.538-.411-.578 0-1.091.137-1.539.411-.433.26-.78.629-1.04 1.105-.245.477-.368 1.026-.368 1.647s.123 1.17.368 1.647c.26.476.607.852 1.04 1.126.448.26.961.39 1.539.39Zm2.795 2.037v-2.795l.411-2.535-.411-2.513V14.1h2.383v10.4h-2.383ZM131.427 24.5V14.1h2.383v10.4h-2.383Zm2.383-5.785-.823-.412c0-1.314.289-2.376.867-3.185.592-.823 1.48-1.235 2.665-1.235.52 0 .989.094 1.408.282.419.188.809.491 1.17.91l-1.56 1.603a1.645 1.645 0 0 0-.628-.433 2.278 2.278 0 0 0-.802-.13c-.664 0-1.213.21-1.647.628-.433.42-.65 1.076-.65 1.972ZM147.379 24.5v-6.002c0-.693-.224-1.264-.672-1.711-.433-.448-.997-.672-1.69-.672-.462 0-.874.101-1.235.303a2.16 2.16 0 0 0-.845.845 2.486 2.486 0 0 0-.303 1.235l-.932-.52c0-.794.173-1.495.52-2.101a3.734 3.734 0 0 1 1.43-1.452 4.06 4.06 0 0 1 2.08-.542c.78 0 1.473.203 2.08.607a4.18 4.18 0 0 1 1.43 1.538c.347.621.52 1.271.52 1.95V24.5h-2.383Zm-7.129 0V14.1h2.384v10.4h-2.384ZM157.016 24.717c-1.04 0-1.979-.232-2.817-.694a5.43 5.43 0 0 1-1.972-1.95c-.476-.823-.715-1.747-.715-2.773s.239-1.943.715-2.752a5.317 5.317 0 0 1 1.929-1.95 5.35 5.35 0 0 1 2.73-.715c.967 0 1.82.224 2.556.672a4.683 4.683 0 0 1 1.755 1.842c.434.78.65 1.668.65 2.665 0 .173-.014.354-.043.541a5.207 5.207 0 0 1-.087.585h-8.536v-1.95h7.301l-.888.78c-.029-.635-.152-1.17-.368-1.603a2.31 2.31 0 0 0-.932-.997c-.39-.23-.874-.346-1.452-.346-.606 0-1.134.13-1.581.39-.448.26-.795.628-1.04 1.105-.246.462-.369 1.018-.369 1.668 0 .65.13 1.22.39 1.712.26.49.629.873 1.105 1.148.477.26 1.026.39 1.647.39.534 0 1.025-.094 1.473-.282a3.078 3.078 0 0 0 1.17-.823l1.517 1.538a4.871 4.871 0 0 1-1.842 1.344 5.87 5.87 0 0 1-2.296.455ZM163.758 24.5V14.1h2.383v10.4h-2.383Zm2.383-5.785-.823-.412c0-1.314.289-2.376.866-3.185.593-.823 1.481-1.235 2.665-1.235.52 0 .99.094 1.409.282.419.188.809.491 1.17.91l-1.56 1.603a1.64 1.64 0 0 0-.629-.433 2.272 2.272 0 0 0-.801-.13c-.665 0-1.214.21-1.647.628-.433.42-.65 1.076-.65 1.972ZM175.75 24.717a6.362 6.362 0 0 1-1.668-.217 6.17 6.17 0 0 1-1.474-.65 5.07 5.07 0 0 1-1.17-1.04l1.517-1.517c.361.42.773.737 1.235.954a4.068 4.068 0 0 0 1.603.303c.535 0 .939-.08 1.214-.238.274-.16.411-.39.411-.694a.834.834 0 0 0-.39-.736c-.26-.174-.599-.318-1.018-.434-.404-.13-.838-.26-1.3-.39a7.177 7.177 0 0 1-1.3-.52 2.935 2.935 0 0 1-.997-.931c-.26-.39-.39-.896-.39-1.517 0-.665.152-1.235.455-1.712a3.12 3.12 0 0 1 1.322-1.105c.578-.26 1.264-.39 2.058-.39.838 0 1.575.152 2.21.455.65.29 1.192.73 1.625 1.322l-1.516 1.517a3.027 3.027 0 0 0-1.04-.845c-.39-.188-.838-.282-1.344-.282-.476 0-.845.072-1.105.217-.26.144-.39.354-.39.628 0 .289.13.513.39.672.26.159.593.296.997.411.419.116.852.246 1.3.39.462.13.896.318 1.3.564.419.23.758.549 1.018.953.26.39.39.903.39 1.538 0 1.011-.354 1.813-1.061 2.405-.708.593-1.669.889-2.882.889Z" fill="#262626"/></svg>