<svg width="33" height="45" fill="none" xmlns="http://www.w3.org/2000/svg"><path d="M19.112 2.405a14.152 14.152 0 0 1 6.5 2.703c1.61 1.208 2.876 2.818 3.738 4.659.748 1.61 1.15 3.45 1.093 5.234-.058.863-.173 1.725-.46 2.53h-.115l.057-1.207c.058-1.726-.115-3.394-.747-5.004-.576-1.726-1.61-3.279-2.876-4.544-2.416-2.3-5.637-3.566-8.973-3.624A13.976 13.976 0 0 0 6.056 8.56a11.906 11.906 0 0 0-2.301 7.995l.115 1.438c.46 0 1.093 0 1.438.402l-.173.173-.977.058c-.69.057-1.38.287-1.898.747a3.681 3.681 0 0 0-.978 2.243c-.288 1.84.69 3.739 2.243 4.774.92.576 2.07.863 3.163.518.23-.115.518-.288.806-.173.172.058.23.23.287.403a14.436 14.436 0 0 0 5.177 5.752c.46.402 1.035.747 1.61 1.035 1.036.46 2.186.805 3.279 1.093l1.84.46c.288.058.518.058.748.173l-.23.057c-1.438.115-2.76-.172-4.141-.575a11.252 11.252 0 0 1-1.956-.69 17.602 17.602 0 0 1-4.831-3.624l.115 1.61c.057.978 0 2.014-.345 2.992-.23.69-.633 1.38-1.093 1.955a9.799 9.799 0 0 1-1.956 1.495c-.575.403-1.208.806-1.84 1.036l-.92.287.517-.517 1.783-1.15 1.265-.978a5.464 5.464 0 0 0 1.841-3.221c.115-.806.115-1.61.115-2.474V30.3c-.575-.805-1.265-1.668-1.553-2.645-.978.46-2.186.402-3.163-.058-.978-.402-1.84-1.093-2.474-1.898a6.695 6.695 0 0 1-1.207-3.22c-.116-1.151.115-2.302.862-3.222.518-.575 1.266-1.035 2.013-1.208a9.269 9.269 0 0 1-.345-2.53 13.46 13.46 0 0 1 4.774-9.951 14.321 14.321 0 0 1 11.446-3.163Z" fill="#262626"/><path d="M26.301 6.782c1.266 1.265 2.301 2.818 2.876 4.544.633 1.61.806 3.278.748 5.004l-.058 1.208-.287.862-.115.748.115 3.22c0 1.209.057 2.417-.058 3.625l-.172 2.703a7.991 7.991 0 0 1-.805 2.588 7.606 7.606 0 0 1-2.531 2.53c-.748.461-1.553.691-2.358.921l-2.186.633-.978.172c0 .058.058.115.173.115.46.288.977.288 1.495.23-.172.403-.23.806-.115 1.266.173.402.633.633.978.805.69.345 1.38.403 2.07.518.403.345.806.805.92 1.38.116.46.116.92-.114 1.323-.288.575-.805 1.035-1.38 1.323a9.017 9.017 0 0 1-2.416 1.035 26.919 26.919 0 0 1-12.77-.057c-.977-.23-1.897-.518-2.76-.978-.69-.345-1.323-.748-1.84-1.265-.288-.403-.518-.806-.576-1.323.633-.23 1.266-.633 1.84-1.036.691-.402 1.381-.92 1.956-1.495.46-.575.863-1.265 1.093-1.956.345-.977.403-2.013.345-2.99l-.115-1.611 1.266 1.323c1.092.863 2.3 1.725 3.566 2.3a11.26 11.26 0 0 0 1.955.69c1.38.403 2.704.691 4.142.576l.23-.058c-.23-.115-.46-.115-.748-.172l-1.84-.46c-1.093-.288-2.244-.633-3.28-1.093l-1.667-.978c-.633-.517-1.323-.978-1.898-1.553a14.439 14.439 0 0 1-3.221-4.256c-.058-.173-.115-.345-.288-.403-.287-.115-.575.058-.805.173-1.093.345-2.243.057-3.163-.518a5.062 5.062 0 0 1-2.244-4.774c.058-.805.403-1.61.978-2.243.518-.46 1.208-.69 1.898-.748l.978-.057.173-.173c-.345-.402-.978-.402-1.438-.402l-.115-1.438a11.906 11.906 0 0 1 2.3-7.995A13.976 13.976 0 0 1 17.33 3.158c3.336.058 6.557 1.323 8.972 3.624Z" fill="#FFDECC"/><path d="M29.58 18.398c.173 0 .173.23.23.346.173.632.23 1.322.289 1.955l.114 1.208c.058 1.265.115 2.473.058 3.739-.058 1.207-.058 2.53-.288 3.738a7.822 7.822 0 0 1-4.601 5.694c-.863.403-1.783.633-2.76.748v.863c.057.172.172.23.287.345.69.345 1.323.46 2.07.633.69.172 1.38.287 2.071.632-.172.173-.403.23-.633.23-.402.058-.862-.057-1.323-.057-.69-.115-1.38-.173-2.07-.518-.345-.172-.805-.402-.978-.805a1.9 1.9 0 0 1 .115-1.265c-.518.057-1.035.057-1.495-.23-.115 0-.173-.058-.173-.115l.978-.173 2.186-.633c.805-.23 1.61-.46 2.358-.92a7.606 7.606 0 0 0 2.53-2.53c.403-.806.69-1.669.806-2.589l.172-2.703c.115-1.208.058-2.416.058-3.624l-.115-3.22.115-.749ZM3.239 19.951c.46 0 .978.058 1.323.403.287.23.575.518.69.863a.447.447 0 0 1-.115.46l-.748.46c-.402.345-.402 1.093 0 1.438.345.288.805.46 1.208.633.115 0 .288.057.345.172a.316.316 0 0 1-.287.173 2.69 2.69 0 0 1-1.61-.518 1.13 1.13 0 0 1-.519-.748c-.115-.46-.115-.977.23-1.38.23-.345.633-.518 1.036-.69-.23-.288-.403-.633-.805-.748-.403-.172-.863-.172-1.266-.288l.518-.23ZM28.027 16.273c.23 0 .46 0 .575.173.23.172.23.575-.058.748-.172.115-.345.115-.575.115l-1.035.23c0 .402-.058.863-.23 1.265-.115.288-.345.518-.575.69a.798.798 0 0 1-.978-.23l-.173-.46c-.172.173-.287.345-.517.46-.173.058-.23 0-.23-.172.057-.345.23-.633.46-.863a5.234 5.234 0 0 1 2.416-1.84l.92-.116Zm-13.92.806c.633 0 1.209.115 1.784.23.805.23 1.61.46 2.3 1.035.173.173.46.345.518.575 0 .115 0 .173-.115.173l-.633-.288c-.575-.287-1.265-.46-1.955-.575-.115.518-.23 1.035-.575 1.495a1.17 1.17 0 0 1-.863.346c-.46-.058-.92-.288-1.208-.633-.288-.403-.345-.805-.403-1.323l-.805.23c-.172.058-.345.115-.518.058-.287-.058-.402-.346-.345-.633.058-.23.288-.345.518-.403.69-.287 1.553-.345 2.3-.287ZM16.294 10.58c.92.057 1.898.402 2.646.977.172.172.402.287.46.518.058.115-.057.287-.173.23-.46-.058-.862-.288-1.323-.403a3.41 3.41 0 0 0-1.322-.288c-.403-.057-.863 0-1.266.058-.863.115-1.725.518-2.473.92l-1.208.518-.057-.058c.057-.23.172-.517.345-.69.345-.575.977-.92 1.553-1.208.862-.402 1.84-.633 2.818-.575Zm11.158.23c.288.114.633.287.863.574.23.23.288.518.23.863l-1.323-.403c-.402-.115-.747-.057-1.15-.115-.403 0-.863.058-1.208.288l-.748.46h-.172a.447.447 0 0 1 .115-.46 2.235 2.235 0 0 1 1.265-1.035c.69-.23 1.38-.345 2.128-.173ZM23.425 23.633v.057c-.23.46-.632.863-1.15 1.036-.173.057-.403.057-.518-.058v-.23c.403-.287.92-.518 1.38-.69l.288-.115Z" fill="#262626"/><path fill-rule="evenodd" clip-rule="evenodd" d="m15.374 25.643-.806-.23h-.057c-.115-.058-.288-.058-.345.057-.058.058 0 .173.057.173l.345.172.116.058a14.78 14.78 0 0 0 4.198 1.38c0 .403.115.806.403 1.15.288.403.69.748 1.208.921.575.23 1.208.172 1.783-.058a2.278 2.278 0 0 0 1.265-1.265c.115-.23.115-.518.115-.748l1.036-.345v-.057l.115-.115a85.873 85.873 0 0 0-1.668 0 18.635 18.635 0 0 1-4.947-.23l-2.243-.633-.115-.058-.46-.172Zm3.969 1.668c.057.575.517 1.035 1.035 1.323.69.517 1.84.287 2.3-.46.173-.23.23-.518.288-.806v-.057l-1.495.115.057.057c0 .173.058.288-.057.46-.115.173-.346.173-.403 0a.56.56 0 0 1-.058-.517 59.118 59.118 0 0 0-1.438-.115h-.23Z" fill="#262626"/><path d="M13.649-.008h2.3c2.819.115 5.58.633 8.283 1.266 1.61.402 3.106.92 4.544 1.725.747.46 1.553 1.035 2.128 1.726a5.26 5.26 0 0 1 1.323 2.645c.23 1.208.23 2.474-.173 3.682-.288.862-.805 1.725-1.553 2.3-1.035.863-2.358 1.438-3.68 1.496-.116.057-.231 0-.231-.173l.46-.92a5.58 5.58 0 0 1-2.186 1.323c-.23.057-.575.115-.805 0v-.288c0-.863-.057-1.668-.287-2.473-.173-.92-.633-1.668-1.036-2.473.115.862.058 1.783-.115 2.645-.172.806-.517 1.496-1.092 2.071-.116.23-.403.288-.633.173l-.115-.403c-.115-.633-.403-1.208-.69-1.783-.518-1.15-1.266-2.128-2.129-3.048a14.38 14.38 0 0 0-4.37-2.991 21.858 21.858 0 0 1-.576 5.981c-.23.806-.575 1.61-1.093 2.301-.172.23-.403.575-.69.69h-.403c.058-.69.058-1.38-.057-2.07-.115-.633-.288-1.323-.575-1.898-.173 1.035-.748 1.898-1.438 2.703-.518.46-1.036.92-1.668 1.265v3.911l.057 1.726c0 .173-.172.46-.345.518a1.783 1.783 0 0 1-.748-.345c-.69-.46-1.323-.978-1.898-1.61a10.41 10.41 0 0 1-2.646-7.766 12.826 12.826 0 0 1 8.513-11.1c1.15-.46 2.358-.748 3.624-.806Z" fill="#262626"/></svg>